  0
SECTION
  2
BLOCKS
  0
ENDSEC
  0
SECTION
  2
ENTITIES
  0
LINE
  8
0
 10
17.9753
 20
0.942047
 11
17.7784
 21
2.81582
  0
LINE
  8
0
 10
17.7784
 20
2.81582
 11
17.3867
 21
4.65874
  0
LINE
  8
0
 10
17.3867
 20
4.65874
 11
16.8044
 21
6.45062
  0
LINE
  8
0
 10
16.8044
 20
6.45062
 11
16.0381
 21
8.17183
  0
LINE
  8
0
 10
16.0381
 20
8.17183
 11
15.0961
 21
9.8035
  0
LINE
  8
0
 10
15.0961
 20
9.8035
 11
13.9886
 21
11.3278
  0
LINE
  8
0
 10
13.9886
 20
11.3278
 11
12.7279
 21
12.7279
  0
LINE
  8
0
 10
12.7279
 20
12.7279
 11
11.3278
 21
13.9886
  0
LINE
  8
0
 10
11.3278
 20
13.9886
 11
9.8035
 21
15.0961
  0
LINE
  8
0
 10
9.8035
 20
15.0961
 11
8.17183
 21
16.0381
  0
LINE
  8
0
 10
8.17183
 20
16.0381
 11
6.45062
 21
16.8044
  0
LINE
  8
0
 10
6.45062
 20
16.8044
 11
4.65874
 21
17.3867
  0
LINE
  8
0
 10
4.65874
 20
17.3867
 11
2.81582
 21
17.7784
  0
LINE
  8
0
 10
2.81582
 20
17.7784
 11
0.942047
 21
17.9753
  0
LINE
  8
0
 10
0.942047
 20
17.9753
 11
-0.942047
 21
17.9753
  0
LINE
  8
0
 10
-0.942047
 20
17.9753
 11
-2.81582
 21
17.7784
  0
LINE
  8
0
 10
-2.81582
 20
17.7784
 11
-4.65874
 21
17.3867
  0
LINE
  8
0
 10
-4.65874
 20
17.3867
 11
-6.45062
 21
16.8044
  0
LINE
  8
0
 10
-6.45062
 20
16.8044
 11
-8.17183
 21
16.0381
  0
LINE
  8
0
 10
-8.17183
 20
16.0381
 11
-9.8035
 21
15.0961
  0
LINE
  8
0
 10
-9.8035
 20
15.0961
 11
-11.3278
 21
13.9886
  0
LINE
  8
0
 10
-11.3278
 20
13.9886
 11
-12.7279
 21
12.7279
  0
LINE
  8
0
 10
-12.7279
 20
12.7279
 11
-13.9886
 21
11.3278
  0
LINE
  8
0
 10
-13.9886
 20
11.3278
 11
-15.0961
 21
9.8035
  0
LINE
  8
0
 10
-15.0961
 20
9.8035
 11
-16.0381
 21
8.17183
  0
LINE
  8
0
 10
-16.0381
 20
8.17183
 11
-16.8044
 21
6.45062
  0
LINE
  8
0
 10
-16.8044
 20
6.45062
 11
-17.3867
 21
4.65874
  0
LINE
  8
0
 10
-17.3867
 20
4.65874
 11
-17.7784
 21
2.81582
  0
LINE
  8
0
 10
-17.7784
 20
2.81582
 11
-17.9753
 21
0.942047
  0
LINE
  8
0
 10
-17.9753
 20
0.942047
 11
-17.9753
 21
-0.942047
  0
LINE
  8
0
 10
-17.9753
 20
-0.942047
 11
-17.7784
 21
-2.81582
  0
LINE
  8
0
 10
-17.7784
 20
-2.81582
 11
-17.3867
 21
-4.65874
  0
LINE
  8
0
 10
-17.3867
 20
-4.65874
 11
-16.8044
 21
-6.45062
  0
LINE
  8
0
 10
-16.8044
 20
-6.45062
 11
-16.0381
 21
-8.17183
  0
LINE
  8
0
 10
-16.0381
 20
-8.17183
 11
-15.0961
 21
-9.8035
  0
LINE
  8
0
 10
-15.0961
 20
-9.8035
 11
-13.9886
 21
-11.3278
  0
LINE
  8
0
 10
-13.9886
 20
-11.3278
 11
-12.7279
 21
-12.7279
  0
LINE
  8
0
 10
-12.7279
 20
-12.7279
 11
-11.3278
 21
-13.9886
  0
LINE
  8
0
 10
-11.3278
 20
-13.9886
 11
-9.8035
 21
-15.0961
  0
LINE
  8
0
 10
-9.8035
 20
-15.0961
 11
-8.17183
 21
-16.0381
  0
LINE
  8
0
 10
-8.17183
 20
-16.0381
 11
-6.45062
 21
-16.8044
  0
LINE
  8
0
 10
-6.45062
 20
-16.8044
 11
-4.65874
 21
-17.3867
  0
LINE
  8
0
 10
-4.65874
 20
-17.3867
 11
-2.81582
 21
-17.7784
  0
LINE
  8
0
 10
-2.81582
 20
-17.7784
 11
-0.942047
 21
-17.9753
  0
LINE
  8
0
 10
-0.942047
 20
-17.9753
 11
0.942047
 21
-17.9753
  0
LINE
  8
0
 10
0.942047
 20
-17.9753
 11
2.81582
 21
-17.7784
  0
LINE
  8
0
 10
2.81582
 20
-17.7784
 11
4.65874
 21
-17.3867
  0
LINE
  8
0
 10
4.65874
 20
-17.3867
 11
6.45062
 21
-16.8044
  0
LINE
  8
0
 10
6.45062
 20
-16.8044
 11
8.17183
 21
-16.0381
  0
LINE
  8
0
 10
8.17183
 20
-16.0381
 11
9.8035
 21
-15.0961
  0
LINE
  8
0
 10
9.8035
 20
-15.0961
 11
11.3278
 21
-13.9886
  0
LINE
  8
0
 10
11.3278
 20
-13.9886
 11
12.7279
 21
-12.7279
  0
LINE
  8
0
 10
12.7279
 20
-12.7279
 11
13.9886
 21
-11.3278
  0
LINE
  8
0
 10
13.9886
 20
-11.3278
 11
15.0961
 21
-9.8035
  0
LINE
  8
0
 10
15.0961
 20
-9.8035
 11
16.0381
 21
-8.17183
  0
LINE
  8
0
 10
16.0381
 20
-8.17183
 11
16.8044
 21
-6.45062
  0
LINE
  8
0
 10
16.8044
 20
-6.45062
 11
17.3867
 21
-4.65874
  0
LINE
  8
0
 10
17.3867
 20
-4.65874
 11
17.7784
 21
-2.81582
  0
LINE
  8
0
 10
17.7784
 20
-2.81582
 11
17.9753
 21
-0.942047
  0
LINE
  8
0
 10
17.9753
 20
-0.942047
 11
17.9753
 21
0.942047
  0
ENDSEC
  0
SECTION
  2
OBJECTS
  0
DICTIONARY
  0
ENDSEC
  0
EOF
