  0
SECTION
  2
BLOCKS
  0
ENDSEC
  0
SECTION
  2
ENTITIES
  0
LINE
  8
0
 10
14.9794
 20
0.785039
 11
14.8153
 21
2.34652
  0
LINE
  8
0
 10
14.8153
 20
2.34652
 11
14.4889
 21
3.88229
  0
LINE
  8
0
 10
14.4889
 20
3.88229
 11
14.0037
 21
5.37552
  0
LINE
  8
0
 10
14.0037
 20
5.37552
 11
13.3651
 21
6.80986
  0
LINE
  8
0
 10
13.3651
 20
6.80986
 11
12.5801
 21
8.16959
  0
LINE
  8
0
 10
12.5801
 20
8.16959
 11
11.6572
 21
9.43981
  0
LINE
  8
0
 10
11.6572
 20
9.43981
 11
10.6066
 21
10.6066
  0
LINE
  8
0
 10
10.6066
 20
10.6066
 11
9.43981
 21
11.6572
  0
LINE
  8
0
 10
9.43981
 20
11.6572
 11
8.16959
 21
12.5801
  0
LINE
  8
0
 10
8.16959
 20
12.5801
 11
6.80986
 21
13.3651
  0
LINE
  8
0
 10
6.80986
 20
13.3651
 11
5.37552
 21
14.0037
  0
LINE
  8
0
 10
5.37552
 20
14.0037
 11
3.88229
 21
14.4889
  0
LINE
  8
0
 10
3.88229
 20
14.4889
 11
2.34652
 21
14.8153
  0
LINE
  8
0
 10
2.34652
 20
14.8153
 11
0.785039
 21
14.9794
  0
LINE
  8
0
 10
0.785039
 20
14.9794
 11
-0.785039
 21
14.9794
  0
LINE
  8
0
 10
-0.785039
 20
14.9794
 11
-2.34652
 21
14.8153
  0
LINE
  8
0
 10
-2.34652
 20
14.8153
 11
-3.88229
 21
14.4889
  0
LINE
  8
0
 10
-3.88229
 20
14.4889
 11
-5.37552
 21
14.0037
  0
LINE
  8
0
 10
-5.37552
 20
14.0037
 11
-6.80986
 21
13.3651
  0
LINE
  8
0
 10
-6.80986
 20
13.3651
 11
-8.16959
 21
12.5801
  0
LINE
  8
0
 10
-8.16959
 20
12.5801
 11
-9.43981
 21
11.6572
  0
LINE
  8
0
 10
-9.43981
 20
11.6572
 11
-10.6066
 21
10.6066
  0
LINE
  8
0
 10
-10.6066
 20
10.6066
 11
-11.6572
 21
9.43981
  0
LINE
  8
0
 10
-11.6572
 20
9.43981
 11
-12.5801
 21
8.16959
  0
LINE
  8
0
 10
-12.5801
 20
8.16959
 11
-13.3651
 21
6.80986
  0
LINE
  8
0
 10
-13.3651
 20
6.80986
 11
-14.0037
 21
5.37552
  0
LINE
  8
0
 10
-14.0037
 20
5.37552
 11
-14.4889
 21
3.88229
  0
LINE
  8
0
 10
-14.4889
 20
3.88229
 11
-14.8153
 21
2.34652
  0
LINE
  8
0
 10
-14.8153
 20
2.34652
 11
-14.9794
 21
0.785039
  0
LINE
  8
0
 10
-14.9794
 20
0.785039
 11
-14.9794
 21
-0.785039
  0
LINE
  8
0
 10
-14.9794
 20
-0.785039
 11
-14.8153
 21
-2.34652
  0
LINE
  8
0
 10
-14.8153
 20
-2.34652
 11
-14.4889
 21
-3.88229
  0
LINE
  8
0
 10
-14.4889
 20
-3.88229
 11
-14.0037
 21
-5.37552
  0
LINE
  8
0
 10
-14.0037
 20
-5.37552
 11
-13.3651
 21
-6.80986
  0
LINE
  8
0
 10
-13.3651
 20
-6.80986
 11
-12.5801
 21
-8.16959
  0
LINE
  8
0
 10
-12.5801
 20
-8.16959
 11
-11.6572
 21
-9.43981
  0
LINE
  8
0
 10
-11.6572
 20
-9.43981
 11
-10.6066
 21
-10.6066
  0
LINE
  8
0
 10
-10.6066
 20
-10.6066
 11
-9.43981
 21
-11.6572
  0
LINE
  8
0
 10
-9.43981
 20
-11.6572
 11
-8.16959
 21
-12.5801
  0
LINE
  8
0
 10
-8.16959
 20
-12.5801
 11
-6.80986
 21
-13.3651
  0
LINE
  8
0
 10
-6.80986
 20
-13.3651
 11
-5.37552
 21
-14.0037
  0
LINE
  8
0
 10
-5.37552
 20
-14.0037
 11
-3.88229
 21
-14.4889
  0
LINE
  8
0
 10
-3.88229
 20
-14.4889
 11
-2.34652
 21
-14.8153
  0
LINE
  8
0
 10
-2.34652
 20
-14.8153
 11
-0.785039
 21
-14.9794
  0
LINE
  8
0
 10
-0.785039
 20
-14.9794
 11
0.785039
 21
-14.9794
  0
LINE
  8
0
 10
0.785039
 20
-14.9794
 11
2.34652
 21
-14.8153
  0
LINE
  8
0
 10
2.34652
 20
-14.8153
 11
3.88229
 21
-14.4889
  0
LINE
  8
0
 10
3.88229
 20
-14.4889
 11
5.37552
 21
-14.0037
  0
LINE
  8
0
 10
5.37552
 20
-14.0037
 11
6.80986
 21
-13.3651
  0
LINE
  8
0
 10
6.80986
 20
-13.3651
 11
8.16959
 21
-12.5801
  0
LINE
  8
0
 10
8.16959
 20
-12.5801
 11
9.43981
 21
-11.6572
  0
LINE
  8
0
 10
9.43981
 20
-11.6572
 11
10.6066
 21
-10.6066
  0
LINE
  8
0
 10
10.6066
 20
-10.6066
 11
11.6572
 21
-9.43981
  0
LINE
  8
0
 10
11.6572
 20
-9.43981
 11
12.5801
 21
-8.16959
  0
LINE
  8
0
 10
12.5801
 20
-8.16959
 11
13.3651
 21
-6.80986
  0
LINE
  8
0
 10
13.3651
 20
-6.80986
 11
14.0037
 21
-5.37552
  0
LINE
  8
0
 10
14.0037
 20
-5.37552
 11
14.4889
 21
-3.88229
  0
LINE
  8
0
 10
14.4889
 20
-3.88229
 11
14.8153
 21
-2.34652
  0
LINE
  8
0
 10
14.8153
 20
-2.34652
 11
14.9794
 21
-0.785039
  0
LINE
  8
0
 10
14.9794
 20
-0.785039
 11
14.9794
 21
0.785039
  0
ENDSEC
  0
SECTION
  2
OBJECTS
  0
DICTIONARY
  0
ENDSEC
  0
EOF
