  0
SECTION
  2
BLOCKS
  0
ENDSEC
  0
SECTION
  2
ENTITIES
  0
LINE
  8
0
 10
13.9808
 20
0.732703
 11
13.8276
 21
2.19008
  0
LINE
  8
0
 10
13.8276
 20
2.19008
 11
13.523
 21
3.62347
  0
LINE
  8
0
 10
13.523
 20
3.62347
 11
13.0701
 21
5.01715
  0
LINE
  8
0
 10
13.0701
 20
5.01715
 11
12.4741
 21
6.35587
  0
LINE
  8
0
 10
12.4741
 20
6.35587
 11
11.7414
 21
7.62495
  0
LINE
  8
0
 10
11.7414
 20
7.62495
 11
10.88
 21
8.81049
  0
LINE
  8
0
 10
10.88
 20
8.81049
 11
9.89949
 21
9.89949
  0
LINE
  8
0
 10
9.89949
 20
9.89949
 11
8.81049
 21
10.88
  0
LINE
  8
0
 10
8.81049
 20
10.88
 11
7.62495
 21
11.7414
  0
LINE
  8
0
 10
7.62495
 20
11.7414
 11
6.35587
 21
12.4741
  0
LINE
  8
0
 10
6.35587
 20
12.4741
 11
5.01715
 21
13.0701
  0
LINE
  8
0
 10
5.01715
 20
13.0701
 11
3.62347
 21
13.523
  0
LINE
  8
0
 10
3.62347
 20
13.523
 11
2.19008
 21
13.8276
  0
LINE
  8
0
 10
2.19008
 20
13.8276
 11
0.732703
 21
13.9808
  0
LINE
  8
0
 10
0.732703
 20
13.9808
 11
-0.732703
 21
13.9808
  0
LINE
  8
0
 10
-0.732703
 20
13.9808
 11
-2.19008
 21
13.8276
  0
LINE
  8
0
 10
-2.19008
 20
13.8276
 11
-3.62347
 21
13.523
  0
LINE
  8
0
 10
-3.62347
 20
13.523
 11
-5.01715
 21
13.0701
  0
LINE
  8
0
 10
-5.01715
 20
13.0701
 11
-6.35587
 21
12.4741
  0
LINE
  8
0
 10
-6.35587
 20
12.4741
 11
-7.62495
 21
11.7414
  0
LINE
  8
0
 10
-7.62495
 20
11.7414
 11
-8.81049
 21
10.88
  0
LINE
  8
0
 10
-8.81049
 20
10.88
 11
-9.89949
 21
9.89949
  0
LINE
  8
0
 10
-9.89949
 20
9.89949
 11
-10.88
 21
8.81049
  0
LINE
  8
0
 10
-10.88
 20
8.81049
 11
-11.7414
 21
7.62495
  0
LINE
  8
0
 10
-11.7414
 20
7.62495
 11
-12.4741
 21
6.35587
  0
LINE
  8
0
 10
-12.4741
 20
6.35587
 11
-13.0701
 21
5.01715
  0
LINE
  8
0
 10
-13.0701
 20
5.01715
 11
-13.523
 21
3.62347
  0
LINE
  8
0
 10
-13.523
 20
3.62347
 11
-13.8276
 21
2.19008
  0
LINE
  8
0
 10
-13.8276
 20
2.19008
 11
-13.9808
 21
0.732703
  0
LINE
  8
0
 10
-13.9808
 20
0.732703
 11
-13.9808
 21
-0.732703
  0
LINE
  8
0
 10
-13.9808
 20
-0.732703
 11
-13.8276
 21
-2.19008
  0
LINE
  8
0
 10
-13.8276
 20
-2.19008
 11
-13.523
 21
-3.62347
  0
LINE
  8
0
 10
-13.523
 20
-3.62347
 11
-13.0701
 21
-5.01715
  0
LINE
  8
0
 10
-13.0701
 20
-5.01715
 11
-12.4741
 21
-6.35587
  0
LINE
  8
0
 10
-12.4741
 20
-6.35587
 11
-11.7414
 21
-7.62495
  0
LINE
  8
0
 10
-11.7414
 20
-7.62495
 11
-10.88
 21
-8.81049
  0
LINE
  8
0
 10
-10.88
 20
-8.81049
 11
-9.89949
 21
-9.89949
  0
LINE
  8
0
 10
-9.89949
 20
-9.89949
 11
-8.81049
 21
-10.88
  0
LINE
  8
0
 10
-8.81049
 20
-10.88
 11
-7.62495
 21
-11.7414
  0
LINE
  8
0
 10
-7.62495
 20
-11.7414
 11
-6.35587
 21
-12.4741
  0
LINE
  8
0
 10
-6.35587
 20
-12.4741
 11
-5.01715
 21
-13.0701
  0
LINE
  8
0
 10
-5.01715
 20
-13.0701
 11
-3.62347
 21
-13.523
  0
LINE
  8
0
 10
-3.62347
 20
-13.523
 11
-2.19008
 21
-13.8276
  0
LINE
  8
0
 10
-2.19008
 20
-13.8276
 11
-0.732703
 21
-13.9808
  0
LINE
  8
0
 10
-0.732703
 20
-13.9808
 11
0.732703
 21
-13.9808
  0
LINE
  8
0
 10
0.732703
 20
-13.9808
 11
2.19008
 21
-13.8276
  0
LINE
  8
0
 10
2.19008
 20
-13.8276
 11
3.62347
 21
-13.523
  0
LINE
  8
0
 10
3.62347
 20
-13.523
 11
5.01715
 21
-13.0701
  0
LINE
  8
0
 10
5.01715
 20
-13.0701
 11
6.35587
 21
-12.4741
  0
LINE
  8
0
 10
6.35587
 20
-12.4741
 11
7.62495
 21
-11.7414
  0
LINE
  8
0
 10
7.62495
 20
-11.7414
 11
8.81049
 21
-10.88
  0
LINE
  8
0
 10
8.81049
 20
-10.88
 11
9.89949
 21
-9.89949
  0
LINE
  8
0
 10
9.89949
 20
-9.89949
 11
10.88
 21
-8.81049
  0
LINE
  8
0
 10
10.88
 20
-8.81049
 11
11.7414
 21
-7.62495
  0
LINE
  8
0
 10
11.7414
 20
-7.62495
 11
12.4741
 21
-6.35587
  0
LINE
  8
0
 10
12.4741
 20
-6.35587
 11
13.0701
 21
-5.01715
  0
LINE
  8
0
 10
13.0701
 20
-5.01715
 11
13.523
 21
-3.62347
  0
LINE
  8
0
 10
13.523
 20
-3.62347
 11
13.8276
 21
-2.19008
  0
LINE
  8
0
 10
13.8276
 20
-2.19008
 11
13.9808
 21
-0.732703
  0
LINE
  8
0
 10
13.9808
 20
-0.732703
 11
13.9808
 21
0.732703
  0
ENDSEC
  0
SECTION
  2
OBJECTS
  0
DICTIONARY
  0
ENDSEC
  0
EOF
