  0
SECTION
  2
BLOCKS
  0
ENDSEC
  0
SECTION
  2
ENTITIES
  0
LINE
  8
0
 10
7.98904
 20
0.418688
 11
7.90151
 21
1.25148
  0
LINE
  8
0
 10
7.90151
 20
1.25148
 11
7.72741
 21
2.07055
  0
LINE
  8
0
 10
7.72741
 20
2.07055
 11
7.46864
 21
2.86694
  0
LINE
  8
0
 10
7.46864
 20
2.86694
 11
7.12805
 21
3.63192
  0
LINE
  8
0
 10
7.12805
 20
3.63192
 11
6.70936
 21
4.35711
  0
LINE
  8
0
 10
6.70936
 20
4.35711
 11
6.21717
 21
5.03456
  0
LINE
  8
0
 10
6.21717
 20
5.03456
 11
5.65685
 21
5.65685
  0
LINE
  8
0
 10
5.65685
 20
5.65685
 11
5.03456
 21
6.21717
  0
LINE
  8
0
 10
5.03456
 20
6.21717
 11
4.35711
 21
6.70936
  0
LINE
  8
0
 10
4.35711
 20
6.70936
 11
3.63192
 21
7.12805
  0
LINE
  8
0
 10
3.63192
 20
7.12805
 11
2.86694
 21
7.46864
  0
LINE
  8
0
 10
2.86694
 20
7.46864
 11
2.07055
 21
7.72741
  0
LINE
  8
0
 10
2.07055
 20
7.72741
 11
1.25148
 21
7.90151
  0
LINE
  8
0
 10
1.25148
 20
7.90151
 11
0.418688
 21
7.98904
  0
LINE
  8
0
 10
0.418688
 20
7.98904
 11
-0.418688
 21
7.98904
  0
LINE
  8
0
 10
-0.418688
 20
7.98904
 11
-1.25148
 21
7.90151
  0
LINE
  8
0
 10
-1.25148
 20
7.90151
 11
-2.07055
 21
7.72741
  0
LINE
  8
0
 10
-2.07055
 20
7.72741
 11
-2.86694
 21
7.46864
  0
LINE
  8
0
 10
-2.86694
 20
7.46864
 11
-3.63192
 21
7.12805
  0
LINE
  8
0
 10
-3.63192
 20
7.12805
 11
-4.35711
 21
6.70936
  0
LINE
  8
0
 10
-4.35711
 20
6.70936
 11
-5.03456
 21
6.21717
  0
LINE
  8
0
 10
-5.03456
 20
6.21717
 11
-5.65685
 21
5.65685
  0
LINE
  8
0
 10
-5.65685
 20
5.65685
 11
-6.21717
 21
5.03456
  0
LINE
  8
0
 10
-6.21717
 20
5.03456
 11
-6.70936
 21
4.35711
  0
LINE
  8
0
 10
-6.70936
 20
4.35711
 11
-7.12805
 21
3.63192
  0
LINE
  8
0
 10
-7.12805
 20
3.63192
 11
-7.46864
 21
2.86694
  0
LINE
  8
0
 10
-7.46864
 20
2.86694
 11
-7.72741
 21
2.07055
  0
LINE
  8
0
 10
-7.72741
 20
2.07055
 11
-7.90151
 21
1.25148
  0
LINE
  8
0
 10
-7.90151
 20
1.25148
 11
-7.98904
 21
0.418688
  0
LINE
  8
0
 10
-7.98904
 20
0.418688
 11
-7.98904
 21
-0.418688
  0
LINE
  8
0
 10
-7.98904
 20
-0.418688
 11
-7.90151
 21
-1.25148
  0
LINE
  8
0
 10
-7.90151
 20
-1.25148
 11
-7.72741
 21
-2.07055
  0
LINE
  8
0
 10
-7.72741
 20
-2.07055
 11
-7.46864
 21
-2.86694
  0
LINE
  8
0
 10
-7.46864
 20
-2.86694
 11
-7.12805
 21
-3.63192
  0
LINE
  8
0
 10
-7.12805
 20
-3.63192
 11
-6.70936
 21
-4.35711
  0
LINE
  8
0
 10
-6.70936
 20
-4.35711
 11
-6.21717
 21
-5.03456
  0
LINE
  8
0
 10
-6.21717
 20
-5.03456
 11
-5.65685
 21
-5.65685
  0
LINE
  8
0
 10
-5.65685
 20
-5.65685
 11
-5.03456
 21
-6.21717
  0
LINE
  8
0
 10
-5.03456
 20
-6.21717
 11
-4.35711
 21
-6.70936
  0
LINE
  8
0
 10
-4.35711
 20
-6.70936
 11
-3.63192
 21
-7.12805
  0
LINE
  8
0
 10
-3.63192
 20
-7.12805
 11
-2.86694
 21
-7.46864
  0
LINE
  8
0
 10
-2.86694
 20
-7.46864
 11
-2.07055
 21
-7.72741
  0
LINE
  8
0
 10
-2.07055
 20
-7.72741
 11
-1.25148
 21
-7.90151
  0
LINE
  8
0
 10
-1.25148
 20
-7.90151
 11
-0.418688
 21
-7.98904
  0
LINE
  8
0
 10
-0.418688
 20
-7.98904
 11
0.418688
 21
-7.98904
  0
LINE
  8
0
 10
0.418688
 20
-7.98904
 11
1.25148
 21
-7.90151
  0
LINE
  8
0
 10
1.25148
 20
-7.90151
 11
2.07055
 21
-7.72741
  0
LINE
  8
0
 10
2.07055
 20
-7.72741
 11
2.86694
 21
-7.46864
  0
LINE
  8
0
 10
2.86694
 20
-7.46864
 11
3.63192
 21
-7.12805
  0
LINE
  8
0
 10
3.63192
 20
-7.12805
 11
4.35711
 21
-6.70936
  0
LINE
  8
0
 10
4.35711
 20
-6.70936
 11
5.03456
 21
-6.21717
  0
LINE
  8
0
 10
5.03456
 20
-6.21717
 11
5.65685
 21
-5.65685
  0
LINE
  8
0
 10
5.65685
 20
-5.65685
 11
6.21717
 21
-5.03456
  0
LINE
  8
0
 10
6.21717
 20
-5.03456
 11
6.70936
 21
-4.35711
  0
LINE
  8
0
 10
6.70936
 20
-4.35711
 11
7.12805
 21
-3.63192
  0
LINE
  8
0
 10
7.12805
 20
-3.63192
 11
7.46864
 21
-2.86694
  0
LINE
  8
0
 10
7.46864
 20
-2.86694
 11
7.72741
 21
-2.07055
  0
LINE
  8
0
 10
7.72741
 20
-2.07055
 11
7.90151
 21
-1.25148
  0
LINE
  8
0
 10
7.90151
 20
-1.25148
 11
7.98904
 21
-0.418688
  0
LINE
  8
0
 10
7.98904
 20
-0.418688
 11
7.98904
 21
0.418688
  0
ENDSEC
  0
SECTION
  2
OBJECTS
  0
DICTIONARY
  0
ENDSEC
  0
EOF
