  0
SECTION
  2
BLOCKS
  0
ENDSEC
  0
SECTION
  2
ENTITIES
  0
LINE
  8
0
 10
11.9836
 20
0.628031
 11
11.8523
 21
1.87721
  0
LINE
  8
0
 10
11.8523
 20
1.87721
 11
11.5911
 21
3.10583
  0
LINE
  8
0
 10
11.5911
 20
3.10583
 11
11.203
 21
4.30042
  0
LINE
  8
0
 10
11.203
 20
4.30042
 11
10.6921
 21
5.44789
  0
LINE
  8
0
 10
10.6921
 20
5.44789
 11
10.064
 21
6.53567
  0
LINE
  8
0
 10
10.064
 20
6.53567
 11
9.32575
 21
7.55184
  0
LINE
  8
0
 10
9.32575
 20
7.55184
 11
8.48528
 21
8.48528
  0
LINE
  8
0
 10
8.48528
 20
8.48528
 11
7.55184
 21
9.32575
  0
LINE
  8
0
 10
7.55184
 20
9.32575
 11
6.53567
 21
10.064
  0
LINE
  8
0
 10
6.53567
 20
10.064
 11
5.44789
 21
10.6921
  0
LINE
  8
0
 10
5.44789
 20
10.6921
 11
4.30042
 21
11.203
  0
LINE
  8
0
 10
4.30042
 20
11.203
 11
3.10583
 21
11.5911
  0
LINE
  8
0
 10
3.10583
 20
11.5911
 11
1.87721
 21
11.8523
  0
LINE
  8
0
 10
1.87721
 20
11.8523
 11
0.628031
 21
11.9836
  0
LINE
  8
0
 10
0.628031
 20
11.9836
 11
-0.628031
 21
11.9836
  0
LINE
  8
0
 10
-0.628031
 20
11.9836
 11
-1.87721
 21
11.8523
  0
LINE
  8
0
 10
-1.87721
 20
11.8523
 11
-3.10583
 21
11.5911
  0
LINE
  8
0
 10
-3.10583
 20
11.5911
 11
-4.30042
 21
11.203
  0
LINE
  8
0
 10
-4.30042
 20
11.203
 11
-5.44789
 21
10.6921
  0
LINE
  8
0
 10
-5.44789
 20
10.6921
 11
-6.53567
 21
10.064
  0
LINE
  8
0
 10
-6.53567
 20
10.064
 11
-7.55184
 21
9.32575
  0
LINE
  8
0
 10
-7.55184
 20
9.32575
 11
-8.48528
 21
8.48528
  0
LINE
  8
0
 10
-8.48528
 20
8.48528
 11
-9.32575
 21
7.55184
  0
LINE
  8
0
 10
-9.32575
 20
7.55184
 11
-10.064
 21
6.53567
  0
LINE
  8
0
 10
-10.064
 20
6.53567
 11
-10.6921
 21
5.44789
  0
LINE
  8
0
 10
-10.6921
 20
5.44789
 11
-11.203
 21
4.30042
  0
LINE
  8
0
 10
-11.203
 20
4.30042
 11
-11.5911
 21
3.10583
  0
LINE
  8
0
 10
-11.5911
 20
3.10583
 11
-11.8523
 21
1.87721
  0
LINE
  8
0
 10
-11.8523
 20
1.87721
 11
-11.9836
 21
0.628031
  0
LINE
  8
0
 10
-11.9836
 20
0.628031
 11
-11.9836
 21
-0.628031
  0
LINE
  8
0
 10
-11.9836
 20
-0.628031
 11
-11.8523
 21
-1.87721
  0
LINE
  8
0
 10
-11.8523
 20
-1.87721
 11
-11.5911
 21
-3.10583
  0
LINE
  8
0
 10
-11.5911
 20
-3.10583
 11
-11.203
 21
-4.30042
  0
LINE
  8
0
 10
-11.203
 20
-4.30042
 11
-10.6921
 21
-5.44789
  0
LINE
  8
0
 10
-10.6921
 20
-5.44789
 11
-10.064
 21
-6.53567
  0
LINE
  8
0
 10
-10.064
 20
-6.53567
 11
-9.32575
 21
-7.55184
  0
LINE
  8
0
 10
-9.32575
 20
-7.55184
 11
-8.48528
 21
-8.48528
  0
LINE
  8
0
 10
-8.48528
 20
-8.48528
 11
-7.55184
 21
-9.32575
  0
LINE
  8
0
 10
-7.55184
 20
-9.32575
 11
-6.53567
 21
-10.064
  0
LINE
  8
0
 10
-6.53567
 20
-10.064
 11
-5.44789
 21
-10.6921
  0
LINE
  8
0
 10
-5.44789
 20
-10.6921
 11
-4.30042
 21
-11.203
  0
LINE
  8
0
 10
-4.30042
 20
-11.203
 11
-3.10583
 21
-11.5911
  0
LINE
  8
0
 10
-3.10583
 20
-11.5911
 11
-1.87721
 21
-11.8523
  0
LINE
  8
0
 10
-1.87721
 20
-11.8523
 11
-0.628031
 21
-11.9836
  0
LINE
  8
0
 10
-0.628031
 20
-11.9836
 11
0.628031
 21
-11.9836
  0
LINE
  8
0
 10
0.628031
 20
-11.9836
 11
1.87721
 21
-11.8523
  0
LINE
  8
0
 10
1.87721
 20
-11.8523
 11
3.10583
 21
-11.5911
  0
LINE
  8
0
 10
3.10583
 20
-11.5911
 11
4.30042
 21
-11.203
  0
LINE
  8
0
 10
4.30042
 20
-11.203
 11
5.44789
 21
-10.6921
  0
LINE
  8
0
 10
5.44789
 20
-10.6921
 11
6.53567
 21
-10.064
  0
LINE
  8
0
 10
6.53567
 20
-10.064
 11
7.55184
 21
-9.32575
  0
LINE
  8
0
 10
7.55184
 20
-9.32575
 11
8.48528
 21
-8.48528
  0
LINE
  8
0
 10
8.48528
 20
-8.48528
 11
9.32575
 21
-7.55184
  0
LINE
  8
0
 10
9.32575
 20
-7.55184
 11
10.064
 21
-6.53567
  0
LINE
  8
0
 10
10.064
 20
-6.53567
 11
10.6921
 21
-5.44789
  0
LINE
  8
0
 10
10.6921
 20
-5.44789
 11
11.203
 21
-4.30042
  0
LINE
  8
0
 10
11.203
 20
-4.30042
 11
11.5911
 21
-3.10583
  0
LINE
  8
0
 10
11.5911
 20
-3.10583
 11
11.8523
 21
-1.87721
  0
LINE
  8
0
 10
11.8523
 20
-1.87721
 11
11.9836
 21
-0.628031
  0
LINE
  8
0
 10
11.9836
 20
-0.628031
 11
11.9836
 21
0.628031
  0
ENDSEC
  0
SECTION
  2
OBJECTS
  0
DICTIONARY
  0
ENDSEC
  0
EOF
