  0
SECTION
  2
BLOCKS
  0
ENDSEC
  0
SECTION
  2
ENTITIES
  0
LINE
  8
0
 10
15.9781
 20
0.837375
 11
15.803
 21
2.50295
  0
LINE
  8
0
 10
15.803
 20
2.50295
 11
15.4548
 21
4.1411
  0
LINE
  8
0
 10
15.4548
 20
4.1411
 11
14.9373
 21
5.73389
  0
LINE
  8
0
 10
14.9373
 20
5.73389
 11
14.2561
 21
7.26385
  0
LINE
  8
0
 10
14.2561
 20
7.26385
 11
13.4187
 21
8.71422
  0
LINE
  8
0
 10
13.4187
 20
8.71422
 11
12.4343
 21
10.0691
  0
LINE
  8
0
 10
12.4343
 20
10.0691
 11
11.3137
 21
11.3137
  0
LINE
  8
0
 10
11.3137
 20
11.3137
 11
10.0691
 21
12.4343
  0
LINE
  8
0
 10
10.0691
 20
12.4343
 11
8.71422
 21
13.4187
  0
LINE
  8
0
 10
8.71422
 20
13.4187
 11
7.26385
 21
14.2561
  0
LINE
  8
0
 10
7.26385
 20
14.2561
 11
5.73389
 21
14.9373
  0
LINE
  8
0
 10
5.73389
 20
14.9373
 11
4.1411
 21
15.4548
  0
LINE
  8
0
 10
4.1411
 20
15.4548
 11
2.50295
 21
15.803
  0
LINE
  8
0
 10
2.50295
 20
15.803
 11
0.837375
 21
15.9781
  0
LINE
  8
0
 10
0.837375
 20
15.9781
 11
-0.837375
 21
15.9781
  0
LINE
  8
0
 10
-0.837375
 20
15.9781
 11
-2.50295
 21
15.803
  0
LINE
  8
0
 10
-2.50295
 20
15.803
 11
-4.1411
 21
15.4548
  0
LINE
  8
0
 10
-4.1411
 20
15.4548
 11
-5.73389
 21
14.9373
  0
LINE
  8
0
 10
-5.73389
 20
14.9373
 11
-7.26385
 21
14.2561
  0
LINE
  8
0
 10
-7.26385
 20
14.2561
 11
-8.71422
 21
13.4187
  0
LINE
  8
0
 10
-8.71422
 20
13.4187
 11
-10.0691
 21
12.4343
  0
LINE
  8
0
 10
-10.0691
 20
12.4343
 11
-11.3137
 21
11.3137
  0
LINE
  8
0
 10
-11.3137
 20
11.3137
 11
-12.4343
 21
10.0691
  0
LINE
  8
0
 10
-12.4343
 20
10.0691
 11
-13.4187
 21
8.71422
  0
LINE
  8
0
 10
-13.4187
 20
8.71422
 11
-14.2561
 21
7.26385
  0
LINE
  8
0
 10
-14.2561
 20
7.26385
 11
-14.9373
 21
5.73389
  0
LINE
  8
0
 10
-14.9373
 20
5.73389
 11
-15.4548
 21
4.1411
  0
LINE
  8
0
 10
-15.4548
 20
4.1411
 11
-15.803
 21
2.50295
  0
LINE
  8
0
 10
-15.803
 20
2.50295
 11
-15.9781
 21
0.837375
  0
LINE
  8
0
 10
-15.9781
 20
0.837375
 11
-15.9781
 21
-0.837375
  0
LINE
  8
0
 10
-15.9781
 20
-0.837375
 11
-15.803
 21
-2.50295
  0
LINE
  8
0
 10
-15.803
 20
-2.50295
 11
-15.4548
 21
-4.1411
  0
LINE
  8
0
 10
-15.4548
 20
-4.1411
 11
-14.9373
 21
-5.73389
  0
LINE
  8
0
 10
-14.9373
 20
-5.73389
 11
-14.2561
 21
-7.26385
  0
LINE
  8
0
 10
-14.2561
 20
-7.26385
 11
-13.4187
 21
-8.71422
  0
LINE
  8
0
 10
-13.4187
 20
-8.71422
 11
-12.4343
 21
-10.0691
  0
LINE
  8
0
 10
-12.4343
 20
-10.0691
 11
-11.3137
 21
-11.3137
  0
LINE
  8
0
 10
-11.3137
 20
-11.3137
 11
-10.0691
 21
-12.4343
  0
LINE
  8
0
 10
-10.0691
 20
-12.4343
 11
-8.71422
 21
-13.4187
  0
LINE
  8
0
 10
-8.71422
 20
-13.4187
 11
-7.26385
 21
-14.2561
  0
LINE
  8
0
 10
-7.26385
 20
-14.2561
 11
-5.73389
 21
-14.9373
  0
LINE
  8
0
 10
-5.73389
 20
-14.9373
 11
-4.1411
 21
-15.4548
  0
LINE
  8
0
 10
-4.1411
 20
-15.4548
 11
-2.50295
 21
-15.803
  0
LINE
  8
0
 10
-2.50295
 20
-15.803
 11
-0.837375
 21
-15.9781
  0
LINE
  8
0
 10
-0.837375
 20
-15.9781
 11
0.837375
 21
-15.9781
  0
LINE
  8
0
 10
0.837375
 20
-15.9781
 11
2.50295
 21
-15.803
  0
LINE
  8
0
 10
2.50295
 20
-15.803
 11
4.1411
 21
-15.4548
  0
LINE
  8
0
 10
4.1411
 20
-15.4548
 11
5.73389
 21
-14.9373
  0
LINE
  8
0
 10
5.73389
 20
-14.9373
 11
7.26385
 21
-14.2561
  0
LINE
  8
0
 10
7.26385
 20
-14.2561
 11
8.71422
 21
-13.4187
  0
LINE
  8
0
 10
8.71422
 20
-13.4187
 11
10.0691
 21
-12.4343
  0
LINE
  8
0
 10
10.0691
 20
-12.4343
 11
11.3137
 21
-11.3137
  0
LINE
  8
0
 10
11.3137
 20
-11.3137
 11
12.4343
 21
-10.0691
  0
LINE
  8
0
 10
12.4343
 20
-10.0691
 11
13.4187
 21
-8.71422
  0
LINE
  8
0
 10
13.4187
 20
-8.71422
 11
14.2561
 21
-7.26385
  0
LINE
  8
0
 10
14.2561
 20
-7.26385
 11
14.9373
 21
-5.73389
  0
LINE
  8
0
 10
14.9373
 20
-5.73389
 11
15.4548
 21
-4.1411
  0
LINE
  8
0
 10
15.4548
 20
-4.1411
 11
15.803
 21
-2.50295
  0
LINE
  8
0
 10
15.803
 20
-2.50295
 11
15.9781
 21
-0.837375
  0
LINE
  8
0
 10
15.9781
 20
-0.837375
 11
15.9781
 21
0.837375
  0
ENDSEC
  0
SECTION
  2
OBJECTS
  0
DICTIONARY
  0
ENDSEC
  0
EOF
