  0
SECTION
  2
BLOCKS
  0
ENDSEC
  0
SECTION
  2
ENTITIES
  0
LINE
  8
0
 10
5.99178
 20
0.314016
 11
5.92613
 21
0.938607
  0
LINE
  8
0
 10
5.92613
 20
0.938607
 11
5.79555
 21
1.55291
  0
LINE
  8
0
 10
5.79555
 20
1.55291
 11
5.60148
 21
2.15021
  0
LINE
  8
0
 10
5.60148
 20
2.15021
 11
5.34604
 21
2.72394
  0
LINE
  8
0
 10
5.34604
 20
2.72394
 11
5.03202
 21
3.26783
  0
LINE
  8
0
 10
5.03202
 20
3.26783
 11
4.66288
 21
3.77592
  0
LINE
  8
0
 10
4.66288
 20
3.77592
 11
4.24264
 21
4.24264
  0
LINE
  8
0
 10
4.24264
 20
4.24264
 11
3.77592
 21
4.66288
  0
LINE
  8
0
 10
3.77592
 20
4.66288
 11
3.26783
 21
5.03202
  0
LINE
  8
0
 10
3.26783
 20
5.03202
 11
2.72394
 21
5.34604
  0
LINE
  8
0
 10
2.72394
 20
5.34604
 11
2.15021
 21
5.60148
  0
LINE
  8
0
 10
2.15021
 20
5.60148
 11
1.55291
 21
5.79555
  0
LINE
  8
0
 10
1.55291
 20
5.79555
 11
0.938607
 21
5.92613
  0
LINE
  8
0
 10
0.938607
 20
5.92613
 11
0.314016
 21
5.99178
  0
LINE
  8
0
 10
0.314016
 20
5.99178
 11
-0.314016
 21
5.99178
  0
LINE
  8
0
 10
-0.314016
 20
5.99178
 11
-0.938607
 21
5.92613
  0
LINE
  8
0
 10
-0.938607
 20
5.92613
 11
-1.55291
 21
5.79555
  0
LINE
  8
0
 10
-1.55291
 20
5.79555
 11
-2.15021
 21
5.60148
  0
LINE
  8
0
 10
-2.15021
 20
5.60148
 11
-2.72394
 21
5.34604
  0
LINE
  8
0
 10
-2.72394
 20
5.34604
 11
-3.26783
 21
5.03202
  0
LINE
  8
0
 10
-3.26783
 20
5.03202
 11
-3.77592
 21
4.66288
  0
LINE
  8
0
 10
-3.77592
 20
4.66288
 11
-4.24264
 21
4.24264
  0
LINE
  8
0
 10
-4.24264
 20
4.24264
 11
-4.66288
 21
3.77592
  0
LINE
  8
0
 10
-4.66288
 20
3.77592
 11
-5.03202
 21
3.26783
  0
LINE
  8
0
 10
-5.03202
 20
3.26783
 11
-5.34604
 21
2.72394
  0
LINE
  8
0
 10
-5.34604
 20
2.72394
 11
-5.60148
 21
2.15021
  0
LINE
  8
0
 10
-5.60148
 20
2.15021
 11
-5.79555
 21
1.55291
  0
LINE
  8
0
 10
-5.79555
 20
1.55291
 11
-5.92613
 21
0.938607
  0
LINE
  8
0
 10
-5.92613
 20
0.938607
 11
-5.99178
 21
0.314016
  0
LINE
  8
0
 10
-5.99178
 20
0.314016
 11
-5.99178
 21
-0.314016
  0
LINE
  8
0
 10
-5.99178
 20
-0.314016
 11
-5.92613
 21
-0.938607
  0
LINE
  8
0
 10
-5.92613
 20
-0.938607
 11
-5.79555
 21
-1.55291
  0
LINE
  8
0
 10
-5.79555
 20
-1.55291
 11
-5.60148
 21
-2.15021
  0
LINE
  8
0
 10
-5.60148
 20
-2.15021
 11
-5.34604
 21
-2.72394
  0
LINE
  8
0
 10
-5.34604
 20
-2.72394
 11
-5.03202
 21
-3.26783
  0
LINE
  8
0
 10
-5.03202
 20
-3.26783
 11
-4.66288
 21
-3.77592
  0
LINE
  8
0
 10
-4.66288
 20
-3.77592
 11
-4.24264
 21
-4.24264
  0
LINE
  8
0
 10
-4.24264
 20
-4.24264
 11
-3.77592
 21
-4.66288
  0
LINE
  8
0
 10
-3.77592
 20
-4.66288
 11
-3.26783
 21
-5.03202
  0
LINE
  8
0
 10
-3.26783
 20
-5.03202
 11
-2.72394
 21
-5.34604
  0
LINE
  8
0
 10
-2.72394
 20
-5.34604
 11
-2.15021
 21
-5.60148
  0
LINE
  8
0
 10
-2.15021
 20
-5.60148
 11
-1.55291
 21
-5.79555
  0
LINE
  8
0
 10
-1.55291
 20
-5.79555
 11
-0.938607
 21
-5.92613
  0
LINE
  8
0
 10
-0.938607
 20
-5.92613
 11
-0.314016
 21
-5.99178
  0
LINE
  8
0
 10
-0.314016
 20
-5.99178
 11
0.314016
 21
-5.99178
  0
LINE
  8
0
 10
0.314016
 20
-5.99178
 11
0.938607
 21
-5.92613
  0
LINE
  8
0
 10
0.938607
 20
-5.92613
 11
1.55291
 21
-5.79555
  0
LINE
  8
0
 10
1.55291
 20
-5.79555
 11
2.15021
 21
-5.60148
  0
LINE
  8
0
 10
2.15021
 20
-5.60148
 11
2.72394
 21
-5.34604
  0
LINE
  8
0
 10
2.72394
 20
-5.34604
 11
3.26783
 21
-5.03202
  0
LINE
  8
0
 10
3.26783
 20
-5.03202
 11
3.77592
 21
-4.66288
  0
LINE
  8
0
 10
3.77592
 20
-4.66288
 11
4.24264
 21
-4.24264
  0
LINE
  8
0
 10
4.24264
 20
-4.24264
 11
4.66288
 21
-3.77592
  0
LINE
  8
0
 10
4.66288
 20
-3.77592
 11
5.03202
 21
-3.26783
  0
LINE
  8
0
 10
5.03202
 20
-3.26783
 11
5.34604
 21
-2.72394
  0
LINE
  8
0
 10
5.34604
 20
-2.72394
 11
5.60148
 21
-2.15021
  0
LINE
  8
0
 10
5.60148
 20
-2.15021
 11
5.79555
 21
-1.55291
  0
LINE
  8
0
 10
5.79555
 20
-1.55291
 11
5.92613
 21
-0.938607
  0
LINE
  8
0
 10
5.92613
 20
-0.938607
 11
5.99178
 21
-0.314016
  0
LINE
  8
0
 10
5.99178
 20
-0.314016
 11
5.99178
 21
0.314016
  0
ENDSEC
  0
SECTION
  2
OBJECTS
  0
DICTIONARY
  0
ENDSEC
  0
EOF
