  0
SECTION
  2
BLOCKS
  0
ENDSEC
  0
SECTION
  2
ENTITIES
  0
LINE
  8
0
 10
6.99041
 20
0.366352
 11
6.91382
 21
1.09504
  0
LINE
  8
0
 10
6.91382
 20
1.09504
 11
6.76148
 21
1.81173
  0
LINE
  8
0
 10
6.76148
 20
1.81173
 11
6.53506
 21
2.50858
  0
LINE
  8
0
 10
6.53506
 20
2.50858
 11
6.23705
 21
3.17793
  0
LINE
  8
0
 10
6.23705
 20
3.17793
 11
5.87069
 21
3.81247
  0
LINE
  8
0
 10
5.87069
 20
3.81247
 11
5.44002
 21
4.40524
  0
LINE
  8
0
 10
5.44002
 20
4.40524
 11
4.94975
 21
4.94975
  0
LINE
  8
0
 10
4.94975
 20
4.94975
 11
4.40524
 21
5.44002
  0
LINE
  8
0
 10
4.40524
 20
5.44002
 11
3.81247
 21
5.87069
  0
LINE
  8
0
 10
3.81247
 20
5.87069
 11
3.17793
 21
6.23705
  0
LINE
  8
0
 10
3.17793
 20
6.23705
 11
2.50858
 21
6.53506
  0
LINE
  8
0
 10
2.50858
 20
6.53506
 11
1.81173
 21
6.76148
  0
LINE
  8
0
 10
1.81173
 20
6.76148
 11
1.09504
 21
6.91382
  0
LINE
  8
0
 10
1.09504
 20
6.91382
 11
0.366352
 21
6.99041
  0
LINE
  8
0
 10
0.366352
 20
6.99041
 11
-0.366352
 21
6.99041
  0
LINE
  8
0
 10
-0.366352
 20
6.99041
 11
-1.09504
 21
6.91382
  0
LINE
  8
0
 10
-1.09504
 20
6.91382
 11
-1.81173
 21
6.76148
  0
LINE
  8
0
 10
-1.81173
 20
6.76148
 11
-2.50858
 21
6.53506
  0
LINE
  8
0
 10
-2.50858
 20
6.53506
 11
-3.17793
 21
6.23705
  0
LINE
  8
0
 10
-3.17793
 20
6.23705
 11
-3.81247
 21
5.87069
  0
LINE
  8
0
 10
-3.81247
 20
5.87069
 11
-4.40524
 21
5.44002
  0
LINE
  8
0
 10
-4.40524
 20
5.44002
 11
-4.94975
 21
4.94975
  0
LINE
  8
0
 10
-4.94975
 20
4.94975
 11
-5.44002
 21
4.40524
  0
LINE
  8
0
 10
-5.44002
 20
4.40524
 11
-5.87069
 21
3.81247
  0
LINE
  8
0
 10
-5.87069
 20
3.81247
 11
-6.23705
 21
3.17793
  0
LINE
  8
0
 10
-6.23705
 20
3.17793
 11
-6.53506
 21
2.50858
  0
LINE
  8
0
 10
-6.53506
 20
2.50858
 11
-6.76148
 21
1.81173
  0
LINE
  8
0
 10
-6.76148
 20
1.81173
 11
-6.91382
 21
1.09504
  0
LINE
  8
0
 10
-6.91382
 20
1.09504
 11
-6.99041
 21
0.366352
  0
LINE
  8
0
 10
-6.99041
 20
0.366352
 11
-6.99041
 21
-0.366352
  0
LINE
  8
0
 10
-6.99041
 20
-0.366352
 11
-6.91382
 21
-1.09504
  0
LINE
  8
0
 10
-6.91382
 20
-1.09504
 11
-6.76148
 21
-1.81173
  0
LINE
  8
0
 10
-6.76148
 20
-1.81173
 11
-6.53506
 21
-2.50858
  0
LINE
  8
0
 10
-6.53506
 20
-2.50858
 11
-6.23705
 21
-3.17793
  0
LINE
  8
0
 10
-6.23705
 20
-3.17793
 11
-5.87069
 21
-3.81247
  0
LINE
  8
0
 10
-5.87069
 20
-3.81247
 11
-5.44002
 21
-4.40524
  0
LINE
  8
0
 10
-5.44002
 20
-4.40524
 11
-4.94975
 21
-4.94975
  0
LINE
  8
0
 10
-4.94975
 20
-4.94975
 11
-4.40524
 21
-5.44002
  0
LINE
  8
0
 10
-4.40524
 20
-5.44002
 11
-3.81247
 21
-5.87069
  0
LINE
  8
0
 10
-3.81247
 20
-5.87069
 11
-3.17793
 21
-6.23705
  0
LINE
  8
0
 10
-3.17793
 20
-6.23705
 11
-2.50858
 21
-6.53506
  0
LINE
  8
0
 10
-2.50858
 20
-6.53506
 11
-1.81173
 21
-6.76148
  0
LINE
  8
0
 10
-1.81173
 20
-6.76148
 11
-1.09504
 21
-6.91382
  0
LINE
  8
0
 10
-1.09504
 20
-6.91382
 11
-0.366352
 21
-6.99041
  0
LINE
  8
0
 10
-0.366352
 20
-6.99041
 11
0.366352
 21
-6.99041
  0
LINE
  8
0
 10
0.366352
 20
-6.99041
 11
1.09504
 21
-6.91382
  0
LINE
  8
0
 10
1.09504
 20
-6.91382
 11
1.81173
 21
-6.76148
  0
LINE
  8
0
 10
1.81173
 20
-6.76148
 11
2.50858
 21
-6.53506
  0
LINE
  8
0
 10
2.50858
 20
-6.53506
 11
3.17793
 21
-6.23705
  0
LINE
  8
0
 10
3.17793
 20
-6.23705
 11
3.81247
 21
-5.87069
  0
LINE
  8
0
 10
3.81247
 20
-5.87069
 11
4.40524
 21
-5.44002
  0
LINE
  8
0
 10
4.40524
 20
-5.44002
 11
4.94975
 21
-4.94975
  0
LINE
  8
0
 10
4.94975
 20
-4.94975
 11
5.44002
 21
-4.40524
  0
LINE
  8
0
 10
5.44002
 20
-4.40524
 11
5.87069
 21
-3.81247
  0
LINE
  8
0
 10
5.87069
 20
-3.81247
 11
6.23705
 21
-3.17793
  0
LINE
  8
0
 10
6.23705
 20
-3.17793
 11
6.53506
 21
-2.50858
  0
LINE
  8
0
 10
6.53506
 20
-2.50858
 11
6.76148
 21
-1.81173
  0
LINE
  8
0
 10
6.76148
 20
-1.81173
 11
6.91382
 21
-1.09504
  0
LINE
  8
0
 10
6.91382
 20
-1.09504
 11
6.99041
 21
-0.366352
  0
LINE
  8
0
 10
6.99041
 20
-0.366352
 11
6.99041
 21
0.366352
  0
ENDSEC
  0
SECTION
  2
OBJECTS
  0
DICTIONARY
  0
ENDSEC
  0
EOF
