  0
SECTION
  2
BLOCKS
  0
ENDSEC
  0
SECTION
  2
ENTITIES
  0
LINE
  8
0
 10
8.98767
 20
0.471024
 11
8.8892
 21
1.40791
  0
LINE
  8
0
 10
8.8892
 20
1.40791
 11
8.69333
 21
2.32937
  0
LINE
  8
0
 10
8.69333
 20
2.32937
 11
8.40222
 21
3.22531
  0
LINE
  8
0
 10
8.40222
 20
3.22531
 11
8.01906
 21
4.08591
  0
LINE
  8
0
 10
8.01906
 20
4.08591
 11
7.54804
 21
4.90175
  0
LINE
  8
0
 10
7.54804
 20
4.90175
 11
6.99431
 21
5.66388
  0
LINE
  8
0
 10
6.99431
 20
5.66388
 11
6.36396
 21
6.36396
  0
LINE
  8
0
 10
6.36396
 20
6.36396
 11
5.66388
 21
6.99431
  0
LINE
  8
0
 10
5.66388
 20
6.99431
 11
4.90175
 21
7.54804
  0
LINE
  8
0
 10
4.90175
 20
7.54804
 11
4.08591
 21
8.01906
  0
LINE
  8
0
 10
4.08591
 20
8.01906
 11
3.22531
 21
8.40222
  0
LINE
  8
0
 10
3.22531
 20
8.40222
 11
2.32937
 21
8.69333
  0
LINE
  8
0
 10
2.32937
 20
8.69333
 11
1.40791
 21
8.8892
  0
LINE
  8
0
 10
1.40791
 20
8.8892
 11
0.471024
 21
8.98767
  0
LINE
  8
0
 10
0.471024
 20
8.98767
 11
-0.471024
 21
8.98767
  0
LINE
  8
0
 10
-0.471024
 20
8.98767
 11
-1.40791
 21
8.8892
  0
LINE
  8
0
 10
-1.40791
 20
8.8892
 11
-2.32937
 21
8.69333
  0
LINE
  8
0
 10
-2.32937
 20
8.69333
 11
-3.22531
 21
8.40222
  0
LINE
  8
0
 10
-3.22531
 20
8.40222
 11
-4.08591
 21
8.01906
  0
LINE
  8
0
 10
-4.08591
 20
8.01906
 11
-4.90175
 21
7.54804
  0
LINE
  8
0
 10
-4.90175
 20
7.54804
 11
-5.66388
 21
6.99431
  0
LINE
  8
0
 10
-5.66388
 20
6.99431
 11
-6.36396
 21
6.36396
  0
LINE
  8
0
 10
-6.36396
 20
6.36396
 11
-6.99431
 21
5.66388
  0
LINE
  8
0
 10
-6.99431
 20
5.66388
 11
-7.54804
 21
4.90175
  0
LINE
  8
0
 10
-7.54804
 20
4.90175
 11
-8.01906
 21
4.08591
  0
LINE
  8
0
 10
-8.01906
 20
4.08591
 11
-8.40222
 21
3.22531
  0
LINE
  8
0
 10
-8.40222
 20
3.22531
 11
-8.69333
 21
2.32937
  0
LINE
  8
0
 10
-8.69333
 20
2.32937
 11
-8.8892
 21
1.40791
  0
LINE
  8
0
 10
-8.8892
 20
1.40791
 11
-8.98767
 21
0.471024
  0
LINE
  8
0
 10
-8.98767
 20
0.471024
 11
-8.98767
 21
-0.471024
  0
LINE
  8
0
 10
-8.98767
 20
-0.471024
 11
-8.8892
 21
-1.40791
  0
LINE
  8
0
 10
-8.8892
 20
-1.40791
 11
-8.69333
 21
-2.32937
  0
LINE
  8
0
 10
-8.69333
 20
-2.32937
 11
-8.40222
 21
-3.22531
  0
LINE
  8
0
 10
-8.40222
 20
-3.22531
 11
-8.01906
 21
-4.08591
  0
LINE
  8
0
 10
-8.01906
 20
-4.08591
 11
-7.54804
 21
-4.90175
  0
LINE
  8
0
 10
-7.54804
 20
-4.90175
 11
-6.99431
 21
-5.66388
  0
LINE
  8
0
 10
-6.99431
 20
-5.66388
 11
-6.36396
 21
-6.36396
  0
LINE
  8
0
 10
-6.36396
 20
-6.36396
 11
-5.66388
 21
-6.99431
  0
LINE
  8
0
 10
-5.66388
 20
-6.99431
 11
-4.90175
 21
-7.54804
  0
LINE
  8
0
 10
-4.90175
 20
-7.54804
 11
-4.08591
 21
-8.01906
  0
LINE
  8
0
 10
-4.08591
 20
-8.01906
 11
-3.22531
 21
-8.40222
  0
LINE
  8
0
 10
-3.22531
 20
-8.40222
 11
-2.32937
 21
-8.69333
  0
LINE
  8
0
 10
-2.32937
 20
-8.69333
 11
-1.40791
 21
-8.8892
  0
LINE
  8
0
 10
-1.40791
 20
-8.8892
 11
-0.471024
 21
-8.98767
  0
LINE
  8
0
 10
-0.471024
 20
-8.98767
 11
0.471024
 21
-8.98767
  0
LINE
  8
0
 10
0.471024
 20
-8.98767
 11
1.40791
 21
-8.8892
  0
LINE
  8
0
 10
1.40791
 20
-8.8892
 11
2.32937
 21
-8.69333
  0
LINE
  8
0
 10
2.32937
 20
-8.69333
 11
3.22531
 21
-8.40222
  0
LINE
  8
0
 10
3.22531
 20
-8.40222
 11
4.08591
 21
-8.01906
  0
LINE
  8
0
 10
4.08591
 20
-8.01906
 11
4.90175
 21
-7.54804
  0
LINE
  8
0
 10
4.90175
 20
-7.54804
 11
5.66388
 21
-6.99431
  0
LINE
  8
0
 10
5.66388
 20
-6.99431
 11
6.36396
 21
-6.36396
  0
LINE
  8
0
 10
6.36396
 20
-6.36396
 11
6.99431
 21
-5.66388
  0
LINE
  8
0
 10
6.99431
 20
-5.66388
 11
7.54804
 21
-4.90175
  0
LINE
  8
0
 10
7.54804
 20
-4.90175
 11
8.01906
 21
-4.08591
  0
LINE
  8
0
 10
8.01906
 20
-4.08591
 11
8.40222
 21
-3.22531
  0
LINE
  8
0
 10
8.40222
 20
-3.22531
 11
8.69333
 21
-2.32937
  0
LINE
  8
0
 10
8.69333
 20
-2.32937
 11
8.8892
 21
-1.40791
  0
LINE
  8
0
 10
8.8892
 20
-1.40791
 11
8.98767
 21
-0.471024
  0
LINE
  8
0
 10
8.98767
 20
-0.471024
 11
8.98767
 21
0.471024
  0
ENDSEC
  0
SECTION
  2
OBJECTS
  0
DICTIONARY
  0
ENDSEC
  0
EOF
