  0
SECTION
  2
BLOCKS
  0
ENDSEC
  0
SECTION
  2
ENTITIES
  0
LINE
  8
0
 10
10.9849
 20
0.575696
 11
10.8646
 21
1.72078
  0
LINE
  8
0
 10
10.8646
 20
1.72078
 11
10.6252
 21
2.84701
  0
LINE
  8
0
 10
10.6252
 20
2.84701
 11
10.2694
 21
3.94205
  0
LINE
  8
0
 10
10.2694
 20
3.94205
 11
9.80107
 21
4.9939
  0
LINE
  8
0
 10
9.80107
 20
4.9939
 11
9.22538
 21
5.99103
  0
LINE
  8
0
 10
9.22538
 20
5.99103
 11
8.54861
 21
6.92252
  0
LINE
  8
0
 10
8.54861
 20
6.92252
 11
7.77817
 21
7.77817
  0
LINE
  8
0
 10
7.77817
 20
7.77817
 11
6.92252
 21
8.54861
  0
LINE
  8
0
 10
6.92252
 20
8.54861
 11
5.99103
 21
9.22538
  0
LINE
  8
0
 10
5.99103
 20
9.22538
 11
4.9939
 21
9.80107
  0
LINE
  8
0
 10
4.9939
 20
9.80107
 11
3.94205
 21
10.2694
  0
LINE
  8
0
 10
3.94205
 20
10.2694
 11
2.84701
 21
10.6252
  0
LINE
  8
0
 10
2.84701
 20
10.6252
 11
1.72078
 21
10.8646
  0
LINE
  8
0
 10
1.72078
 20
10.8646
 11
0.575696
 21
10.9849
  0
LINE
  8
0
 10
0.575696
 20
10.9849
 11
-0.575696
 21
10.9849
  0
LINE
  8
0
 10
-0.575696
 20
10.9849
 11
-1.72078
 21
10.8646
  0
LINE
  8
0
 10
-1.72078
 20
10.8646
 11
-2.84701
 21
10.6252
  0
LINE
  8
0
 10
-2.84701
 20
10.6252
 11
-3.94205
 21
10.2694
  0
LINE
  8
0
 10
-3.94205
 20
10.2694
 11
-4.9939
 21
9.80107
  0
LINE
  8
0
 10
-4.9939
 20
9.80107
 11
-5.99103
 21
9.22538
  0
LINE
  8
0
 10
-5.99103
 20
9.22538
 11
-6.92252
 21
8.54861
  0
LINE
  8
0
 10
-6.92252
 20
8.54861
 11
-7.77817
 21
7.77817
  0
LINE
  8
0
 10
-7.77817
 20
7.77817
 11
-8.54861
 21
6.92252
  0
LINE
  8
0
 10
-8.54861
 20
6.92252
 11
-9.22538
 21
5.99103
  0
LINE
  8
0
 10
-9.22538
 20
5.99103
 11
-9.80107
 21
4.9939
  0
LINE
  8
0
 10
-9.80107
 20
4.9939
 11
-10.2694
 21
3.94205
  0
LINE
  8
0
 10
-10.2694
 20
3.94205
 11
-10.6252
 21
2.84701
  0
LINE
  8
0
 10
-10.6252
 20
2.84701
 11
-10.8646
 21
1.72078
  0
LINE
  8
0
 10
-10.8646
 20
1.72078
 11
-10.9849
 21
0.575696
  0
LINE
  8
0
 10
-10.9849
 20
0.575696
 11
-10.9849
 21
-0.575696
  0
LINE
  8
0
 10
-10.9849
 20
-0.575696
 11
-10.8646
 21
-1.72078
  0
LINE
  8
0
 10
-10.8646
 20
-1.72078
 11
-10.6252
 21
-2.84701
  0
LINE
  8
0
 10
-10.6252
 20
-2.84701
 11
-10.2694
 21
-3.94205
  0
LINE
  8
0
 10
-10.2694
 20
-3.94205
 11
-9.80107
 21
-4.9939
  0
LINE
  8
0
 10
-9.80107
 20
-4.9939
 11
-9.22538
 21
-5.99103
  0
LINE
  8
0
 10
-9.22538
 20
-5.99103
 11
-8.54861
 21
-6.92252
  0
LINE
  8
0
 10
-8.54861
 20
-6.92252
 11
-7.77817
 21
-7.77817
  0
LINE
  8
0
 10
-7.77817
 20
-7.77817
 11
-6.92252
 21
-8.54861
  0
LINE
  8
0
 10
-6.92252
 20
-8.54861
 11
-5.99103
 21
-9.22538
  0
LINE
  8
0
 10
-5.99103
 20
-9.22538
 11
-4.9939
 21
-9.80107
  0
LINE
  8
0
 10
-4.9939
 20
-9.80107
 11
-3.94205
 21
-10.2694
  0
LINE
  8
0
 10
-3.94205
 20
-10.2694
 11
-2.84701
 21
-10.6252
  0
LINE
  8
0
 10
-2.84701
 20
-10.6252
 11
-1.72078
 21
-10.8646
  0
LINE
  8
0
 10
-1.72078
 20
-10.8646
 11
-0.575696
 21
-10.9849
  0
LINE
  8
0
 10
-0.575696
 20
-10.9849
 11
0.575696
 21
-10.9849
  0
LINE
  8
0
 10
0.575696
 20
-10.9849
 11
1.72078
 21
-10.8646
  0
LINE
  8
0
 10
1.72078
 20
-10.8646
 11
2.84701
 21
-10.6252
  0
LINE
  8
0
 10
2.84701
 20
-10.6252
 11
3.94205
 21
-10.2694
  0
LINE
  8
0
 10
3.94205
 20
-10.2694
 11
4.9939
 21
-9.80107
  0
LINE
  8
0
 10
4.9939
 20
-9.80107
 11
5.99103
 21
-9.22538
  0
LINE
  8
0
 10
5.99103
 20
-9.22538
 11
6.92252
 21
-8.54861
  0
LINE
  8
0
 10
6.92252
 20
-8.54861
 11
7.77817
 21
-7.77817
  0
LINE
  8
0
 10
7.77817
 20
-7.77817
 11
8.54861
 21
-6.92252
  0
LINE
  8
0
 10
8.54861
 20
-6.92252
 11
9.22538
 21
-5.99103
  0
LINE
  8
0
 10
9.22538
 20
-5.99103
 11
9.80107
 21
-4.9939
  0
LINE
  8
0
 10
9.80107
 20
-4.9939
 11
10.2694
 21
-3.94205
  0
LINE
  8
0
 10
10.2694
 20
-3.94205
 11
10.6252
 21
-2.84701
  0
LINE
  8
0
 10
10.6252
 20
-2.84701
 11
10.8646
 21
-1.72078
  0
LINE
  8
0
 10
10.8646
 20
-1.72078
 11
10.9849
 21
-0.575696
  0
LINE
  8
0
 10
10.9849
 20
-0.575696
 11
10.9849
 21
0.575696
  0
ENDSEC
  0
SECTION
  2
OBJECTS
  0
DICTIONARY
  0
ENDSEC
  0
EOF
