  0
SECTION
  2
BLOCKS
  0
ENDSEC
  0
SECTION
  2
ENTITIES
  0
LINE
  8
0
 10
12.9822
 20
0.680367
 11
12.8399
 21
2.03365
  0
LINE
  8
0
 10
12.8399
 20
2.03365
 11
12.557
 21
3.36465
  0
LINE
  8
0
 10
12.557
 20
3.36465
 11
12.1365
 21
4.65878
  0
LINE
  8
0
 10
12.1365
 20
4.65878
 11
11.5831
 21
5.90188
  0
LINE
  8
0
 10
11.5831
 20
5.90188
 11
10.9027
 21
7.08031
  0
LINE
  8
0
 10
10.9027
 20
7.08031
 11
10.1029
 21
8.18117
  0
LINE
  8
0
 10
10.1029
 20
8.18117
 11
9.19239
 21
9.19239
  0
LINE
  8
0
 10
9.19239
 20
9.19239
 11
8.18117
 21
10.1029
  0
LINE
  8
0
 10
8.18117
 20
10.1029
 11
7.08031
 21
10.9027
  0
LINE
  8
0
 10
7.08031
 20
10.9027
 11
5.90188
 21
11.5831
  0
LINE
  8
0
 10
5.90188
 20
11.5831
 11
4.65878
 21
12.1365
  0
LINE
  8
0
 10
4.65878
 20
12.1365
 11
3.36465
 21
12.557
  0
LINE
  8
0
 10
3.36465
 20
12.557
 11
2.03365
 21
12.8399
  0
LINE
  8
0
 10
2.03365
 20
12.8399
 11
0.680367
 21
12.9822
  0
LINE
  8
0
 10
0.680367
 20
12.9822
 11
-0.680367
 21
12.9822
  0
LINE
  8
0
 10
-0.680367
 20
12.9822
 11
-2.03365
 21
12.8399
  0
LINE
  8
0
 10
-2.03365
 20
12.8399
 11
-3.36465
 21
12.557
  0
LINE
  8
0
 10
-3.36465
 20
12.557
 11
-4.65878
 21
12.1365
  0
LINE
  8
0
 10
-4.65878
 20
12.1365
 11
-5.90188
 21
11.5831
  0
LINE
  8
0
 10
-5.90188
 20
11.5831
 11
-7.08031
 21
10.9027
  0
LINE
  8
0
 10
-7.08031
 20
10.9027
 11
-8.18117
 21
10.1029
  0
LINE
  8
0
 10
-8.18117
 20
10.1029
 11
-9.19239
 21
9.19239
  0
LINE
  8
0
 10
-9.19239
 20
9.19239
 11
-10.1029
 21
8.18117
  0
LINE
  8
0
 10
-10.1029
 20
8.18117
 11
-10.9027
 21
7.08031
  0
LINE
  8
0
 10
-10.9027
 20
7.08031
 11
-11.5831
 21
5.90188
  0
LINE
  8
0
 10
-11.5831
 20
5.90188
 11
-12.1365
 21
4.65878
  0
LINE
  8
0
 10
-12.1365
 20
4.65878
 11
-12.557
 21
3.36465
  0
LINE
  8
0
 10
-12.557
 20
3.36465
 11
-12.8399
 21
2.03365
  0
LINE
  8
0
 10
-12.8399
 20
2.03365
 11
-12.9822
 21
0.680367
  0
LINE
  8
0
 10
-12.9822
 20
0.680367
 11
-12.9822
 21
-0.680367
  0
LINE
  8
0
 10
-12.9822
 20
-0.680367
 11
-12.8399
 21
-2.03365
  0
LINE
  8
0
 10
-12.8399
 20
-2.03365
 11
-12.557
 21
-3.36465
  0
LINE
  8
0
 10
-12.557
 20
-3.36465
 11
-12.1365
 21
-4.65878
  0
LINE
  8
0
 10
-12.1365
 20
-4.65878
 11
-11.5831
 21
-5.90188
  0
LINE
  8
0
 10
-11.5831
 20
-5.90188
 11
-10.9027
 21
-7.08031
  0
LINE
  8
0
 10
-10.9027
 20
-7.08031
 11
-10.1029
 21
-8.18117
  0
LINE
  8
0
 10
-10.1029
 20
-8.18117
 11
-9.19239
 21
-9.19239
  0
LINE
  8
0
 10
-9.19239
 20
-9.19239
 11
-8.18117
 21
-10.1029
  0
LINE
  8
0
 10
-8.18117
 20
-10.1029
 11
-7.08031
 21
-10.9027
  0
LINE
  8
0
 10
-7.08031
 20
-10.9027
 11
-5.90188
 21
-11.5831
  0
LINE
  8
0
 10
-5.90188
 20
-11.5831
 11
-4.65878
 21
-12.1365
  0
LINE
  8
0
 10
-4.65878
 20
-12.1365
 11
-3.36465
 21
-12.557
  0
LINE
  8
0
 10
-3.36465
 20
-12.557
 11
-2.03365
 21
-12.8399
  0
LINE
  8
0
 10
-2.03365
 20
-12.8399
 11
-0.680367
 21
-12.9822
  0
LINE
  8
0
 10
-0.680367
 20
-12.9822
 11
0.680367
 21
-12.9822
  0
LINE
  8
0
 10
0.680367
 20
-12.9822
 11
2.03365
 21
-12.8399
  0
LINE
  8
0
 10
2.03365
 20
-12.8399
 11
3.36465
 21
-12.557
  0
LINE
  8
0
 10
3.36465
 20
-12.557
 11
4.65878
 21
-12.1365
  0
LINE
  8
0
 10
4.65878
 20
-12.1365
 11
5.90188
 21
-11.5831
  0
LINE
  8
0
 10
5.90188
 20
-11.5831
 11
7.08031
 21
-10.9027
  0
LINE
  8
0
 10
7.08031
 20
-10.9027
 11
8.18117
 21
-10.1029
  0
LINE
  8
0
 10
8.18117
 20
-10.1029
 11
9.19239
 21
-9.19239
  0
LINE
  8
0
 10
9.19239
 20
-9.19239
 11
10.1029
 21
-8.18117
  0
LINE
  8
0
 10
10.1029
 20
-8.18117
 11
10.9027
 21
-7.08031
  0
LINE
  8
0
 10
10.9027
 20
-7.08031
 11
11.5831
 21
-5.90188
  0
LINE
  8
0
 10
11.5831
 20
-5.90188
 11
12.1365
 21
-4.65878
  0
LINE
  8
0
 10
12.1365
 20
-4.65878
 11
12.557
 21
-3.36465
  0
LINE
  8
0
 10
12.557
 20
-3.36465
 11
12.8399
 21
-2.03365
  0
LINE
  8
0
 10
12.8399
 20
-2.03365
 11
12.9822
 21
-0.680367
  0
LINE
  8
0
 10
12.9822
 20
-0.680367
 11
12.9822
 21
0.680367
  0
ENDSEC
  0
SECTION
  2
OBJECTS
  0
DICTIONARY
  0
ENDSEC
  0
EOF
