  0
SECTION
  2
BLOCKS
  0
ENDSEC
  0
SECTION
  2
ENTITIES
  0
LINE
  8
0
 10
9.9863
 20
0.52336
 11
9.87688
 21
1.56434
  0
LINE
  8
0
 10
9.87688
 20
1.56434
 11
9.65926
 21
2.58819
  0
LINE
  8
0
 10
9.65926
 20
2.58819
 11
9.3358
 21
3.58368
  0
LINE
  8
0
 10
9.3358
 20
3.58368
 11
8.91007
 21
4.5399
  0
LINE
  8
0
 10
8.91007
 20
4.5399
 11
8.38671
 21
5.44639
  0
LINE
  8
0
 10
8.38671
 20
5.44639
 11
7.77146
 21
6.2932
  0
LINE
  8
0
 10
7.77146
 20
6.2932
 11
7.07107
 21
7.07107
  0
LINE
  8
0
 10
7.07107
 20
7.07107
 11
6.2932
 21
7.77146
  0
LINE
  8
0
 10
6.2932
 20
7.77146
 11
5.44639
 21
8.38671
  0
LINE
  8
0
 10
5.44639
 20
8.38671
 11
4.5399
 21
8.91007
  0
LINE
  8
0
 10
4.5399
 20
8.91007
 11
3.58368
 21
9.3358
  0
LINE
  8
0
 10
3.58368
 20
9.3358
 11
2.58819
 21
9.65926
  0
LINE
  8
0
 10
2.58819
 20
9.65926
 11
1.56434
 21
9.87688
  0
LINE
  8
0
 10
1.56434
 20
9.87688
 11
0.52336
 21
9.9863
  0
LINE
  8
0
 10
0.52336
 20
9.9863
 11
-0.52336
 21
9.9863
  0
LINE
  8
0
 10
-0.52336
 20
9.9863
 11
-1.56434
 21
9.87688
  0
LINE
  8
0
 10
-1.56434
 20
9.87688
 11
-2.58819
 21
9.65926
  0
LINE
  8
0
 10
-2.58819
 20
9.65926
 11
-3.58368
 21
9.3358
  0
LINE
  8
0
 10
-3.58368
 20
9.3358
 11
-4.5399
 21
8.91007
  0
LINE
  8
0
 10
-4.5399
 20
8.91007
 11
-5.44639
 21
8.38671
  0
LINE
  8
0
 10
-5.44639
 20
8.38671
 11
-6.2932
 21
7.77146
  0
LINE
  8
0
 10
-6.2932
 20
7.77146
 11
-7.07107
 21
7.07107
  0
LINE
  8
0
 10
-7.07107
 20
7.07107
 11
-7.77146
 21
6.2932
  0
LINE
  8
0
 10
-7.77146
 20
6.2932
 11
-8.38671
 21
5.44639
  0
LINE
  8
0
 10
-8.38671
 20
5.44639
 11
-8.91007
 21
4.5399
  0
LINE
  8
0
 10
-8.91007
 20
4.5399
 11
-9.3358
 21
3.58368
  0
LINE
  8
0
 10
-9.3358
 20
3.58368
 11
-9.65926
 21
2.58819
  0
LINE
  8
0
 10
-9.65926
 20
2.58819
 11
-9.87688
 21
1.56434
  0
LINE
  8
0
 10
-9.87688
 20
1.56434
 11
-9.9863
 21
0.52336
  0
LINE
  8
0
 10
-9.9863
 20
0.52336
 11
-9.9863
 21
-0.52336
  0
LINE
  8
0
 10
-9.9863
 20
-0.52336
 11
-9.87688
 21
-1.56434
  0
LINE
  8
0
 10
-9.87688
 20
-1.56434
 11
-9.65926
 21
-2.58819
  0
LINE
  8
0
 10
-9.65926
 20
-2.58819
 11
-9.3358
 21
-3.58368
  0
LINE
  8
0
 10
-9.3358
 20
-3.58368
 11
-8.91007
 21
-4.5399
  0
LINE
  8
0
 10
-8.91007
 20
-4.5399
 11
-8.38671
 21
-5.44639
  0
LINE
  8
0
 10
-8.38671
 20
-5.44639
 11
-7.77146
 21
-6.2932
  0
LINE
  8
0
 10
-7.77146
 20
-6.2932
 11
-7.07107
 21
-7.07107
  0
LINE
  8
0
 10
-7.07107
 20
-7.07107
 11
-6.2932
 21
-7.77146
  0
LINE
  8
0
 10
-6.2932
 20
-7.77146
 11
-5.44639
 21
-8.38671
  0
LINE
  8
0
 10
-5.44639
 20
-8.38671
 11
-4.5399
 21
-8.91007
  0
LINE
  8
0
 10
-4.5399
 20
-8.91007
 11
-3.58368
 21
-9.3358
  0
LINE
  8
0
 10
-3.58368
 20
-9.3358
 11
-2.58819
 21
-9.65926
  0
LINE
  8
0
 10
-2.58819
 20
-9.65926
 11
-1.56434
 21
-9.87688
  0
LINE
  8
0
 10
-1.56434
 20
-9.87688
 11
-0.52336
 21
-9.9863
  0
LINE
  8
0
 10
-0.52336
 20
-9.9863
 11
0.52336
 21
-9.9863
  0
LINE
  8
0
 10
0.52336
 20
-9.9863
 11
1.56434
 21
-9.87688
  0
LINE
  8
0
 10
1.56434
 20
-9.87688
 11
2.58819
 21
-9.65926
  0
LINE
  8
0
 10
2.58819
 20
-9.65926
 11
3.58368
 21
-9.3358
  0
LINE
  8
0
 10
3.58368
 20
-9.3358
 11
4.5399
 21
-8.91007
  0
LINE
  8
0
 10
4.5399
 20
-8.91007
 11
5.44639
 21
-8.38671
  0
LINE
  8
0
 10
5.44639
 20
-8.38671
 11
6.2932
 21
-7.77146
  0
LINE
  8
0
 10
6.2932
 20
-7.77146
 11
7.07107
 21
-7.07107
  0
LINE
  8
0
 10
7.07107
 20
-7.07107
 11
7.77146
 21
-6.2932
  0
LINE
  8
0
 10
7.77146
 20
-6.2932
 11
8.38671
 21
-5.44639
  0
LINE
  8
0
 10
8.38671
 20
-5.44639
 11
8.91007
 21
-4.5399
  0
LINE
  8
0
 10
8.91007
 20
-4.5399
 11
9.3358
 21
-3.58368
  0
LINE
  8
0
 10
9.3358
 20
-3.58368
 11
9.65926
 21
-2.58819
  0
LINE
  8
0
 10
9.65926
 20
-2.58819
 11
9.87688
 21
-1.56434
  0
LINE
  8
0
 10
9.87688
 20
-1.56434
 11
9.9863
 21
-0.52336
  0
LINE
  8
0
 10
9.9863
 20
-0.52336
 11
9.9863
 21
0.52336
  0
ENDSEC
  0
SECTION
  2
OBJECTS
  0
DICTIONARY
  0
ENDSEC
  0
EOF
