  0
SECTION
  2
BLOCKS
  0
ENDSEC
  0
SECTION
  2
ENTITIES
  0
LINE
  8
0
 10
19.618
 20
15.6756
 11
19.3383
 21
15.9863
  0
LINE
  8
0
 10
19.3383
 20
15.9863
 11
19
 21
16.232
  0
LINE
  8
0
 10
19
 20
16.232
 11
18.618
 21
16.4021
  0
LINE
  8
0
 10
18.618
 20
16.4021
 11
18.209
 21
16.489
  0
LINE
  8
0
 10
18.209
 20
16.489
 11
-18.209
 21
16.489
  0
LINE
  8
0
 10
-18.209
 20
16.489
 11
-18.618
 21
16.4021
  0
LINE
  8
0
 10
-18.618
 20
16.4021
 11
-19
 21
16.232
  0
LINE
  8
0
 10
-19
 20
16.232
 11
-19.3383
 21
15.9863
  0
LINE
  8
0
 10
-19.3383
 20
15.9863
 11
-19.618
 21
15.6756
  0
LINE
  8
0
 10
-19.618
 20
15.6756
 11
-19.8271
 21
15.3135
  0
LINE
  8
0
 10
-19.8271
 20
15.3135
 11
-19.9563
 21
14.9158
  0
LINE
  8
0
 10
-19.9563
 20
14.9158
 11
-20
 21
14.5
  0
LINE
  8
0
 10
-20
 20
14.5
 11
-20
 21
-14.5
  0
LINE
  8
0
 10
-20
 20
-14.5
 11
-19.9563
 21
-14.9158
  0
LINE
  8
0
 10
-19.9563
 20
-14.9158
 11
-19.8271
 21
-15.3135
  0
LINE
  8
0
 10
-19.8271
 20
-15.3135
 11
-19.618
 21
-15.6756
  0
LINE
  8
0
 10
-19.618
 20
-15.6756
 11
-19.3383
 21
-15.9863
  0
LINE
  8
0
 10
-19.3383
 20
-15.9863
 11
-19
 21
-16.232
  0
LINE
  8
0
 10
-19
 20
-16.232
 11
-18.618
 21
-16.4021
  0
LINE
  8
0
 10
-18.618
 20
-16.4021
 11
-18.209
 21
-16.489
  0
LINE
  8
0
 10
-18.209
 20
-16.489
 11
18.209
 21
-16.489
  0
LINE
  8
0
 10
18.209
 20
-16.489
 11
18.618
 21
-16.4021
  0
LINE
  8
0
 10
18.618
 20
-16.4021
 11
19
 21
-16.232
  0
LINE
  8
0
 10
19
 20
-16.232
 11
19.3383
 21
-15.9863
  0
LINE
  8
0
 10
19.3383
 20
-15.9863
 11
19.618
 21
-15.6756
  0
LINE
  8
0
 10
19.618
 20
-15.6756
 11
19.8271
 21
-15.3135
  0
LINE
  8
0
 10
19.8271
 20
-15.3135
 11
19.9563
 21
-14.9158
  0
LINE
  8
0
 10
19.9563
 20
-14.9158
 11
20
 21
-14.5
  0
LINE
  8
0
 10
20
 20
-14.5
 11
20
 21
14.5
  0
LINE
  8
0
 10
20
 20
14.5
 11
19.9563
 21
14.9158
  0
LINE
  8
0
 10
19.9563
 20
14.9158
 11
19.8271
 21
15.3135
  0
LINE
  8
0
 10
19.8271
 20
15.3135
 11
19.618
 21
15.6756
  0
ENDSEC
  0
SECTION
  2
OBJECTS
  0
DICTIONARY
  0
ENDSEC
  0
EOF
